<?xml version="1.0" encoding="UTF-8"?>
<svg version="1.1" viewBox="0 0 936 960" width="234" height="240" xmlns="http://www.w3.org/2000/svg">
<path transform="translate(180)" d="m0 0h576l31 7 24 8 24 12 15 10 14 11 4 3v2l4 2 12 12 9 11 10 14 9 15 9 19 8 24 5 21 2 11v595l-6 29-7 23-11 24-9 15-8 11-9 11-8 9-8 7-7 7-16 12-15 9-25 12-18 6-24 6-10 2h-572l-33-7-24-8-21-10-16-10-13-10-10-9-8-7-7-8-8-9-10-14-9-15-10-21-8-25-5-23-1-5v-600l7-30 8-24 8-16 10-18 10-13 9-11 19-19 16-12 16-10 15-8 21-8 21-6z" fill="#45ACE3"/>
<path transform="translate(388,168)" d="m0 0h39l19 3 20 6 16 8 14 9 14 12 9 10 9 13 10 19 6 18 3 15 1 12 1 134v168l-1 197h-38l-24-4-20-7-19-10-13-10-15-15-11-15-10-19-6-19-3-16-1-9-1-29v-443z" fill="#FEFEFD"/>
<path transform="translate(285,304)" d="m0 0h41l2 2 1 75v250l-1 40-3 20-7 21-10 19-9 12-9 10-7 7-15 11-16 9-16 6-12 3-15 2-31 2h-8l-2-1-1-37v-306l1-23 3-21 7-21 8-16 10-14 11-12 8-8 15-11 16-8 16-6 17-4z" fill="#FEFEFD"/>
<path transform="translate(608,344)" d="m0 0h37l20 3 18 5 19 9 15 10 9 7v2l4 2 9 10 9 13 8 14 6 16 4 16 2 19 1 61v145l-1 116h-35l-22-3-20-6-21-10-14-10-19-19-9-13-7-12-7-18-4-16-2-15-1-26v-254z" fill="#FEFEFD"/>
<path transform="translate(609,168)" d="m0 0h37l19 3 21 6 21 11 10 7 9 7v2l4 2 9 10 9 13 6 10 8 20 4 17 2 15 1 22-2 3h-35l-21-3-20-6-21-10-12-9-10-9-9-9-11-15-8-15-7-19-4-19-1-8v-25z" fill="#FEFEFD"/>
</svg>
